<svg id="svg" version="1.1" xmlns="http://www.w3.org/2000/svg" xmlns:xlink="http://www.w3.org/1999/xlink" width="400" height="400" viewBox="0, 0, 400,400"><g id="svgg"><path id="path0" d="M171.391 80.049 C 164.787 82.179,160.421 87.646,159.843 94.507 L 159.570 97.742 154.883 99.394 C 108.053 115.901,72.773 156.253,62.898 204.606 C 60.071 218.446,59.182 242.152,61.186 250.256 C 61.360 250.959,61.055 251.268,59.334 252.132 C 53.087 255.270,48.885 260.174,46.603 266.992 C 45.102 271.475,44.677 292.334,46.059 293.715 L 46.875 294.531 83.594 294.531 L 120.313 294.531 120.313 296.696 C 120.312 310.401,131.339 323.428,145.396 326.332 C 149.957 327.274,250.043 327.274,254.604 326.332 C 268.525 323.456,279.670 310.410,279.685 296.973 L 279.688 294.531 316.406 294.531 L 353.125 294.531 353.941 293.715 C 355.332 292.324,354.897 271.487,353.381 266.908 C 351.438 261.039,347.589 256.309,342.093 253.036 C 340.749 252.235,339.431 251.444,339.165 251.278 C 338.794 251.046,338.775 250.348,339.084 248.242 C 339.849 243.026,340.189 232.382,339.809 225.586 C 336.609 168.459,299.868 119.366,245.508 99.584 L 240.430 97.736 240.190 94.571 C 239.735 88.556,236.289 83.670,230.579 80.944 L 227.539 79.492 200.586 79.409 C 175.291 79.331,173.495 79.370,171.391 80.049 M229.091 84.355 C 235.997 87.753,236.855 90.895,235.764 108.789 C 235.410 114.590,234.868 123.467,234.559 128.516 C 234.250 133.564,233.550 145.166,233.004 154.297 C 232.457 163.428,231.755 175.029,231.444 180.078 C 231.133 185.127,230.343 198.311,229.688 209.375 C 229.033 220.439,228.237 233.498,227.920 238.395 C 227.603 243.291,227.344 247.905,227.344 248.649 L 227.344 250.000 200.000 250.000 C 174.219 250.000,172.656 249.961,172.657 249.316 C 172.657 248.940,172.132 240.195,171.490 229.883 C 169.650 200.302,167.667 167.678,166.599 149.414 C 166.059 140.176,165.179 125.323,164.644 116.408 C 163.105 90.747,163.396 88.827,169.394 85.120 C 172.526 83.185,171.904 83.221,200.391 83.313 L 227.148 83.398 229.091 84.355 M255.469 107.805 C 260.279 110.002,263.283 111.635,263.278 112.049 C 263.276 112.190,263.020 116.172,262.709 120.898 C 262.397 125.625,261.686 136.699,261.126 145.508 C 260.567 154.316,259.963 163.457,259.784 165.820 C 259.422 170.610,259.777 171.875,261.485 171.875 C 263.448 171.875,263.888 167.688,266.271 126.270 C 266.658 119.556,267.099 114.063,267.252 114.063 C 267.737 114.063,274.656 118.494,278.516 121.276 C 311.256 144.877,331.498 180.032,335.541 220.313 C 336.304 227.915,335.863 248.147,334.900 249.707 C 334.801 249.868,311.413 250.000,282.927 250.000 L 231.135 250.000 231.390 245.996 C 231.891 238.139,235.542 177.685,236.326 164.258 C 236.765 156.738,237.553 143.730,238.076 135.352 C 238.599 126.973,239.221 116.514,239.459 112.109 C 239.696 107.705,239.972 103.547,240.073 102.869 L 240.256 101.636 245.616 103.695 C 248.564 104.827,252.998 106.676,255.469 107.805 M159.920 103.613 C 160.031 104.526,160.841 117.578,161.718 132.617 C 162.596 147.656,163.751 167.080,164.284 175.781 C 164.817 184.482,165.945 203.027,166.791 216.992 C 167.636 230.957,168.442 244.097,168.581 246.193 L 168.834 250.003 116.938 249.904 L 65.042 249.805 64.678 247.461 C 63.991 243.042,64.191 220.699,64.967 215.234 C 70.301 177.656,89.013 145.666,118.750 123.286 C 124.486 118.970,132.323 113.834,132.660 114.171 C 132.776 114.287,133.557 124.813,134.396 137.562 C 135.235 150.311,136.068 162.970,136.248 165.694 C 136.595 170.941,136.937 171.875,138.515 171.875 C 140.867 171.875,140.938 175.712,137.716 128.578 C 137.167 120.555,136.719 113.419,136.719 112.720 C 136.719 111.146,144.191 107.345,155.273 103.281 C 159.741 101.643,159.679 101.638,159.920 103.613 M338.887 255.628 C 347.962 260.088,350.763 266.241,350.774 281.738 L 350.781 290.625 200.000 290.625 L 49.219 290.625 49.226 281.738 C 49.238 265.413,52.415 259.120,62.805 254.843 L 65.039 253.923 200.411 254.012 L 335.783 254.102 338.887 255.628 M275.781 297.027 C 275.781 308.218,266.227 319.729,254.688 322.439 C 250.239 323.484,148.904 323.334,144.769 322.277 C 133.196 319.317,124.260 308.226,124.226 296.777 L 124.219 294.531 200.000 294.531 L 275.781 294.531 275.781 297.027 " stroke="none" fill="#000000" fill-rule="evenodd"></path></g></svg>