<svg id="svg" version="1.1" xmlns="http://www.w3.org/2000/svg" xmlns:xlink="http://www.w3.org/1999/xlink" width="400" height="400" viewBox="0, 0, 400,400"><g id="svgg"><path id="path0" d="M181.342 79.278 C 179.301 79.779,177.039 81.509,176.082 83.301 L 175.195 84.961 175.000 127.085 L 174.805 169.208 173.709 170.151 C 171.872 171.731,168.892 171.054,168.048 168.866 C 167.658 167.857,166.829 155.286,164.230 110.947 C 163.683 101.606,163.150 93.879,163.047 93.776 C 162.944 93.673,161.209 94.409,159.190 95.412 C 128.998 110.410,108.148 140.525,104.142 174.923 C 103.488 180.538,103.661 180.248,97.805 185.498 C 86.982 195.199,88.953 201.950,103.906 206.399 C 141.914 217.705,228.626 219.654,279.071 210.336 C 309.971 204.628,316.108 197.817,301.767 185.147 C 296.316 180.332,296.532 180.704,295.861 174.945 C 292.378 145.044,275.930 117.944,251.358 101.622 C 246.284 98.251,237.328 93.401,236.924 93.805 C 236.704 94.025,235.639 110.910,233.601 146.484 C 232.955 157.764,232.334 167.539,232.221 168.208 C 231.753 170.983,228.222 172.032,226.191 170.001 L 225.000 168.810 224.998 127.667 C 224.996 99.866,224.861 86.039,224.581 85.031 C 224.072 83.198,221.759 80.564,219.922 79.725 C 218.407 79.034,183.960 78.635,181.342 79.278 M219.153 83.014 C 221.829 84.398,221.658 81.570,221.875 128.125 L 222.070 170.117 222.982 171.396 C 225.876 175.453,232.514 175.060,234.652 170.703 C 235.435 169.107,235.590 167.636,236.342 154.688 C 238.243 121.928,239.712 99.220,239.946 98.986 C 240.627 98.305,252.094 105.606,257.693 110.285 C 277.183 126.575,289.415 149.318,292.750 175.469 C 293.427 180.779,293.918 182.122,295.852 183.963 C 297.702 185.725,297.785 185.583,293.834 187.418 C 287.724 190.257,276.999 193.133,264.198 195.364 L 259.060 196.259 259.273 197.641 C 259.554 199.470,259.333 199.394,262.783 198.850 C 276.666 196.658,290.474 192.857,297.663 189.250 L 300.210 187.972 302.223 189.787 C 309.397 196.252,305.786 200.790,290.412 204.630 C 244.888 216.003,154.967 216.018,109.692 204.662 C 93.991 200.723,90.754 196.749,97.724 189.967 L 99.805 187.942 103.248 189.637 C 110.506 193.208,126.920 197.590,138.526 199.054 L 140.529 199.307 140.699 197.855 C 140.900 196.135,141.470 196.375,134.180 195.110 C 122.999 193.170,112.106 190.178,106.153 187.413 C 102.228 185.589,102.309 185.722,104.086 183.999 C 106.098 182.050,106.567 180.708,107.395 174.549 C 111.717 142.402,129.644 115.519,156.910 100.297 L 160.109 98.511 160.323 100.525 C 160.441 101.633,160.887 108.516,161.313 115.820 C 164.475 169.943,164.418 169.197,165.470 170.997 C 167.994 175.318,174.881 175.300,177.252 170.965 C 177.880 169.818,177.944 166.631,178.125 127.734 C 178.342 81.129,178.141 84.461,180.818 83.007 C 182.387 82.154,217.503 82.161,219.153 83.014 M128.591 226.585 C 117.393 228.064,108.316 235.743,105.694 245.955 C 104.678 249.914,104.789 281.949,105.834 286.033 C 107.763 293.575,112.599 299.236,120.117 302.752 C 126.001 305.504,126.473 305.555,147.912 305.752 C 178.922 306.036,177.565 306.545,189.970 289.986 C 199.841 276.808,200.230 276.820,210.525 290.608 C 222.464 306.595,220.845 305.988,250.977 305.763 C 270.362 305.618,271.432 305.572,274.414 304.761 C 283.824 302.201,290.784 296.004,293.799 287.500 C 295.003 284.105,295.446 251.016,294.351 246.295 C 292.241 237.195,284.625 229.813,274.509 227.060 C 271.816 226.328,133.939 225.879,128.591 226.585 M275.890 230.958 C 283.794 233.755,289.499 239.718,291.209 246.969 C 292.045 250.515,292.045 280.198,291.209 284.180 C 289.552 292.074,284.003 298.126,275.717 301.075 C 272.522 302.212,252.488 302.987,235.742 302.622 C 223.918 302.364,223.074 301.876,214.360 290.265 C 205.139 277.978,204.462 277.370,199.979 277.352 C 195.676 277.335,194.741 278.130,187.164 288.242 C 176.284 302.762,177.410 302.206,158.398 302.445 C 138.710 302.692,127.777 302.288,124.609 301.195 C 116.130 298.270,110.421 292.237,108.773 284.460 C 107.968 280.661,107.971 250.963,108.777 247.160 C 110.053 241.138,114.701 235.419,120.703 232.486 C 126.803 229.505,120.233 229.725,200.586 229.808 L 272.852 229.883 275.890 230.958 M127.258 235.372 C 120.300 237.059,115.203 241.969,113.868 248.271 C 113.025 252.251,113.037 279.969,113.883 283.560 C 115.445 290.186,120.581 294.990,127.925 296.693 C 130.108 297.199,133.699 297.275,151.105 297.181 L 171.702 297.070 173.644 296.080 C 175.353 295.209,176.407 294.003,182.422 286.038 C 192.411 272.812,192.828 272.490,200.000 272.471 C 207.183 272.453,207.518 272.711,217.578 286.036 C 223.594 294.004,224.647 295.209,226.356 296.080 L 228.298 297.070 248.696 297.178 C 265.737 297.268,269.563 297.188,271.940 296.692 C 279.499 295.116,285.071 289.698,286.355 282.675 C 287.227 277.908,286.646 248.990,285.627 246.443 C 283.171 240.301,278.311 236.451,271.347 235.130 C 267.963 234.489,129.947 234.720,127.258 235.372 M270.924 238.318 C 276.212 239.292,280.779 242.770,282.377 247.040 C 283.218 249.288,283.231 249.641,283.121 266.559 L 283.008 283.789 282.041 285.742 C 278.315 293.264,274.897 294.122,248.597 294.133 L 229.810 294.141 228.089 293.234 C 226.674 292.490,225.197 290.765,219.805 283.566 C 209.922 270.371,208.108 269.039,200.030 269.050 C 192.061 269.060,189.804 270.694,180.492 283.194 C 176.031 289.184,173.367 292.411,172.375 293.027 L 170.898 293.945 151.563 294.061 C 127.276 294.207,125.100 293.870,120.489 289.259 C 116.894 285.665,116.992 286.321,116.992 265.820 L 116.992 247.852 118.151 245.760 C 120.127 242.192,123.826 239.523,128.304 238.436 C 130.982 237.785,267.422 237.672,270.924 238.318 M91.480 246.104 C 89.127 247.538,89.062 248.022,89.063 264.148 C 89.064 282.980,89.028 282.890,96.707 283.141 L 100.781 283.274 100.781 264.293 L 100.781 245.313 96.777 245.314 C 93.451 245.315,92.555 245.449,91.480 246.104 M299.219 264.258 L 299.219 283.203 302.832 283.203 C 310.808 283.201,310.742 283.359,310.742 264.327 C 310.742 244.941,310.890 245.313,303.162 245.313 L 299.219 245.313 299.219 264.258 M97.656 264.063 L 97.656 279.688 95.586 279.688 C 92.412 279.688,92.578 280.549,92.578 264.063 C 92.578 247.576,92.412 248.438,95.586 248.438 L 97.656 248.438 97.656 264.063 M306.988 248.972 C 307.306 249.354,307.402 253.704,307.329 264.298 L 307.227 279.091 306.158 279.603 C 305.500 279.919,304.561 280.017,303.716 279.858 L 302.344 279.601 302.344 264.019 L 302.344 248.438 304.444 248.438 C 305.744 248.438,306.714 248.641,306.988 248.972 " stroke="none" fill="#000000" fill-rule="evenodd"></path></g></svg>