<?xml version="1.0" encoding="UTF-8"?>
<svg id="Camada_2" data-name="Camada 2" xmlns="http://www.w3.org/2000/svg" viewBox="0 0 93.37 92.75">
  <defs>
    <style>
      .cls-1 {
        fill: none;
        stroke: #fff;
        stroke-miterlimit: 10;
        stroke-width: .42px;
      }
    </style>
  </defs>
  <g id="Camada_1-2" data-name="Camada 1">
    <g>
      <path class="cls-1" d="M25.8,13.98L39.45.32c.84-.28,1.47-.02,2.08.61,1.71,1.77,3.48,3.49,5.2,5.24.29.29.52.36.94.23,1.73-.54,3.34-.22,4.53,1.15.66.75,1.02,1.76,1.6,2.79,2.21.44,3.16,1.4,3.87,4.06,2.62.65,3.28,1.32,4.16,4.16,3.43.54,4.76,3.54,3.72,6.31.21.13.42.34.66.4.8.19,1.6.44,2.41.47,2.51.08,5.1-.3,7.27,1.42.89-.75,1.48-1.93,2.87-1.4l2.79,2.79c.22,1.06.02,1.68-.66,2.03-.66.34-1.26.18-2-.56l-.82-.82c-1.61,1.61-3.17,3.17-4.73,4.73l11.52,11.52c1.59-1.59,3.15-3.15,4.73-4.73l-.55-.56c-.19-.19-.39-.37-.57-.57-.5-.55-.56-1.31-.13-1.87.51-.66,1.18-.69,1.91-.48.93.93,1.86,1.86,2.79,2.79.28.84.01,1.47-.62,2.09-1.74,1.67-3.41,3.41-5.14,5.1-.34.33-.43.59-.25,1.06.52,1.33.37,2.65-.39,3.85-.79,1.23-1.97,1.93-3.44,2.05-.13,1.13-.53,2.06-1.3,2.84-.79.8-1.77,1.17-2.82,1.32-.38,2.42-1.76,3.77-4.15,4.15-.2,1.7-1.03,2.98-2.59,3.7-1.59.74-3.12.43-4.73-.59-.19.96-.42,1.75-.48,2.55-.08,1.07-.02,2.14-.02,3.22,0,1.32-.31,2.55-.96,3.71-.16.29-.34.57-.51.87.28.28.53.52.76.76.93.94.94,1.63.02,2.56-4.19,4.19-8.38,8.38-12.57,12.57-.92.92-1.62.91-2.55-.03-1.73-1.72-3.45-3.44-5.17-5.18-.33-.34-.59-.47-1.12-.28-1.74.6-3.38.31-4.59-1.12-.63-.74-.96-1.74-1.49-2.75-2.19-.3-3.55-1.69-3.86-4.1-2.46-.32-3.81-1.72-4.13-4.11-3.53-.83-4.48-2.45-3.74-6.57-.78-.18-1.56-.45-2.36-.52-1.11-.09-2.24-.03-3.36-.02-1.4,0-2.7-.35-3.9-1.06-.26-.16-.52-.33-.8-.5-.32.32-.59.6-.87.87-.82.81-1.57.81-2.4-.02-4.23-4.22-8.45-8.45-12.67-12.67-.85-.86-.85-1.58.01-2.45,1.76-1.76,3.51-3.52,5.28-5.27.35-.34.45-.61.31-1.12-.53-1.83-.13-3.48,1.39-4.66.7-.54,1.63-.79,2.54-1.21.48-2.43,1.27-3.22,4.12-3.97.13-1.07.4-2.16,1.31-2.82.84-.61,1.82-1.01,2.87-1.58.52-3.06,2.38-4.17,6.21-3.5.59-.78.82-1.68.82-2.65,0-1.07,0-2.15,0-3.22,0-1.37.28-2.68,1.04-3.82.42-.62.29-.97-.22-1.37-.72-.56-1.06-1.26-.73-2.17ZM63.58,27.09c-3.66,3.66-7.23,7.22-10.78,10.81-.13.14-.17.55-.07.72,1.05,1.77,1.53,3.68,1.46,5.73-.08,2.43.8,4.44,2.52,6.15,4.16,4.12,8.28,8.27,12.42,12.4.25.25.54.51.86.65.56.25,1.1.13,1.54-.32.44-.45.54-.98.3-1.55-.12-.28-.33-.54-.55-.76-1.42-1.44-2.86-2.87-4.28-4.3-.19-.19-.38-.39-.49-.62-.31-.6-.1-1.4.41-1.78.59-.44,1.38-.4,1.93.14,1.56,1.54,3.1,3.11,4.66,4.65.68.67,1.55.69,2.15.1s.57-1.45-.07-2.15c-.12-.13-.24-.24-.36-.36-1.4-1.4-2.8-2.79-4.19-4.19-.68-.69-.72-1.61-.11-2.2.6-.58,1.49-.54,2.15.12.68.66,1.35,1.34,2.02,2.01.84.84,1.68,1.7,2.54,2.53.69.67,1.55.71,2.15.12.63-.61.59-1.48-.1-2.21-.32-.34-.65-.65-.98-.98-1.21-1.21-2.42-2.41-3.62-3.62-.61-.62-.61-1.53-.04-2.1.57-.57,1.47-.56,2.1.04.53.51,1.04,1.03,1.55,1.55,1.03,1.03,2.06,2.08,3.11,3.1.66.64,1.51.66,2.1.1.61-.58.6-1.45-.02-2.16-.13-.14-.27-.28-.41-.42l-8.43-8.43c-1.58-1.58-3.17-3.17-4.75-4.76-.75-.76-.75-1.53,0-2.29.79-.8,1.58-1.59,2.38-2.38l1.14-1.14c-.48-.18-.81-.37-1.15-.41-.87-.09-1.75-.16-2.62-.14-2.3.06-4.55-.03-6.46-1.64ZM65.69,63.59c-3.66-3.66-7.26-7.27-10.88-10.85-.12-.12-.5-.14-.67-.04-1.76,1.01-3.65,1.45-5.67,1.38-2.43-.07-4.44.81-6.15,2.54-3.46,3.51-6.96,6.97-10.44,10.45-.55.55-1.12,1.08-1.64,1.66-.58.64-.6,1.6-.09,2.14.5.53,1.45.51,2.13-.06.15-.13.28-.27.42-.41,1.21-1.21,2.41-2.42,3.62-3.62.73-.72,1.56-.77,2.19-.16.66.64.61,1.48-.15,2.24-1.27,1.28-2.56,2.55-3.82,3.83-.74.74-.82,1.78-.21,2.35.58.55,1.54.43,2.29-.29.12-.12.24-.24.36-.36,1.21-1.21,2.41-2.42,3.62-3.62.61-.59,1.45-.58,2.03-.03.61.58.63,1.45.03,2.09-.45.48-.93.93-1.39,1.4-.92.92-1.85,1.81-2.73,2.75-.62.65-.63,1.66-.08,2.19.53.51,1.46.46,2.13-.12.15-.13.28-.27.42-.41,1.19-1.19,2.38-2.38,3.57-3.57.76-.75,1.6-.81,2.24-.15.62.63.56,1.46-.16,2.19-1.17,1.18-2.35,2.35-3.52,3.52-1.02,1.02-1.22,1.99-.56,2.67.64.64,1.6.44,2.6-.56,4.07-4.07,8.14-8.14,12.21-12.2,1.12-1.12,1.71-1.12,2.81-.02l3.41,3.41c.21-.93.44-1.64.52-2.37.08-.82.05-1.66.02-2.48-.08-1.98.26-3.83,1.54-5.5ZM29.34,18.96c-.61.93-.68,1.89-.68,2.87,0,2.55.31,5.16-1.52,7.3,3.78,3.77,7.48,7.48,11.18,11.18,1.9-1.21,3.95-1.7,6.15-1.63,2.19.07,4.07-.69,5.61-2.22,4.1-4.07,8.18-8.17,12.26-12.26.75-.75.81-1.66.18-2.26-.64-.6-1.53-.53-2.27.21-1.24,1.24-2.48,2.48-3.73,3.72-.75.75-1.62.82-2.25.2-.63-.62-.56-1.51.18-2.25,1.25-1.26,2.54-2.49,3.76-3.79.32-.34.53-.88.57-1.34.04-.57-.36-.99-.92-1.19-.61-.22-1.16-.07-1.61.38-1.28,1.27-2.55,2.55-3.83,3.83-.78.78-1.68.86-2.31.21-.62-.63-.54-1.49.22-2.25,1.26-1.26,2.51-2.52,3.78-3.77.45-.44.69-.95.51-1.58-.31-1.1-1.64-1.4-2.53-.54-1.29,1.26-2.55,2.55-3.83,3.82-.19.18-.39.38-.63.49-.61.3-1.39.1-1.78-.43-.44-.59-.39-1.38.15-1.93,1.33-1.36,2.69-2.69,4.02-4.04.64-.65.67-1.52.12-2.1-.57-.6-1.5-.59-2.17.02-.15.13-.28.27-.42.41-4.14,4.14-8.27,8.28-12.42,12.41-.79.79-1.56.79-2.34,0-1.14-1.13-2.28-2.27-3.47-3.47ZM40.35,54.47c-1.15-1.87-1.63-3.88-1.56-6.02.08-2.36-.8-4.3-2.46-5.95-3.94-3.92-7.86-7.86-11.8-11.79-.16-.15-.3-.32-.47-.45-.66-.52-1.58-.52-2.08-.02-.5.51-.49,1.42.03,2.08.14.17.3.32.46.47,1.22,1.22,2.45,2.44,3.67,3.68.65.66.66,1.56.06,2.15-.59.57-1.46.55-2.1-.06-.49-.47-.97-.97-1.45-1.45-.88-.88-1.75-1.78-2.65-2.63-.64-.61-1.59-.63-2.13-.13-.56.52-.53,1.5.07,2.19.11.13.24.24.36.36,1.12,1.12,2.24,2.24,3.36,3.36.95.95,1.09,1.77.42,2.46-.68.7-1.53.56-2.51-.42-1.22-1.22-2.43-2.46-3.68-3.66-.66-.64-1.64-.67-2.19-.13-.54.54-.49,1.5.12,2.19.13.15.27.28.41.42,1.19,1.19,2.38,2.38,3.57,3.57.7.7.74,1.59.12,2.2-.62.61-1.49.55-2.2-.15-1.21-1.2-2.41-2.41-3.62-3.62-.93-.93-1.93-1.1-2.55-.44-.61.65-.43,1.6.47,2.5,4.14,4.14,8.27,8.27,12.41,12.41.82.82.82,1.57,0,2.4-.29.29-.59.59-.88.88-.85.85-1.71,1.71-2.56,2.56,0,.09.01.18.02.27.79.18,1.57.45,2.36.51,1.16.09,2.34.02,3.51.03,1.32.01,2.58.32,3.67,1.05.55.37.8.22,1.2-.18,3.35-3.37,6.72-6.73,10.08-10.09.17-.17.34-.34.53-.53ZM33.96,19.41c3.67-3.67,7.29-7.29,10.9-10.9l-4.7-4.7-10.91,10.91c1.57,1.57,3.12,3.12,4.7,4.7ZM3.82,52.55c3.67,3.67,7.29,7.29,10.9,10.91l4.7-4.7c-3.66-3.66-7.27-7.27-10.9-10.9l-4.7,4.7ZM47.89,84.21l4.7,4.7,10.9-10.9c-1.59-1.59-3.13-3.13-4.7-4.7-3.64,3.64-7.25,7.26-10.9,10.9ZM50.15,40.12c-2.16,1.4-4.58,1.49-7.03,1.58-.98.04-1.94.49-2.86.74.42,1.08.89,1.95,1.09,2.89.25,1.18.32,2.41.38,3.62.07,1.27.28,2.48.96,3.62,1.82-1.05,3.72-1.47,5.73-1.44.58,0,1.18,0,1.75-.12.83-.19,1.63-.5,2.49-.78-.12-.29-.15-.4-.21-.5-.9-1.67-1.25-3.47-1.21-5.35.03-1.49-.23-2.9-1.09-4.26Z"/>
      <path class="cls-1" d="M86.21,33.22c-.04.52.05,1.09-.15,1.53-.3.66-1.19.83-1.85.51-.63-.31-.95-1.05-.75-1.73.19-.67.85-1.12,1.56-1.05.19.02.38.07.57.11.21.21.41.41.62.62Z"/>
    </g>
  </g>
</svg>