<?xml version="1.0" encoding="UTF-8"?>
<svg id="Camada_2" data-name="Camada 2" xmlns="http://www.w3.org/2000/svg" viewBox="0 0 90.83 90.83">
  <defs>
    <style>
      .cls-1 {
        fill: #fff;
      }
    </style>
  </defs>
  <g id="Camada_1-2" data-name="Camada 1">
    <g>
      <path class="cls-1" d="M68.62,79.48c-1.21,0-2.39-.45-3.34-1.32l-11.89-10.98h-30.87c-6.16,0-11.16-5.01-11.16-11.16V11.16C11.35,5.01,16.36,0,22.52,0h57.15c6.16,0,11.16,5.01,11.16,11.16v44.85c0,6.16-5.01,11.16-11.16,11.16h-6.08v7.34c0,2-1.14,3.73-2.96,4.53-.65.29-1.33.43-2.01.43ZM22.52,4.26c-3.81,0-6.91,3.1-6.91,6.91v44.85c0,3.81,3.1,6.9,6.91,6.9h31.7c.53,0,1.05.2,1.44.56l12.51,11.54c.29.27.59.19.75.13.16-.07.41-.24.41-.63v-9.47c0-1.18.95-2.13,2.13-2.13h8.2c3.81,0,6.91-3.1,6.91-6.9V11.16c0-3.81-3.1-6.91-6.91-6.91H22.52Z"/>
      <path class="cls-1" d="M19.02,90.83c-.61,0-1.22-.13-1.81-.38-1.66-.73-2.7-2.31-2.7-4.13v-6.85h-4.78c-5.37,0-9.74-4.37-9.74-9.74v-32.62c0-3.66,2.02-6.98,5.27-8.66,1.04-.53,2.33-.13,2.87.91.54,1.05.13,2.33-.91,2.87-1.83.95-2.97,2.81-2.97,4.87v32.62c0,3.02,2.46,5.48,5.48,5.48h6.91c1.18,0,2.13.95,2.13,2.13v8.97l1.86,1.74-1.52-1.49,10.53-10.72c.4-.41.95-.64,1.52-.64h26.76c1.18,0,2.13.95,2.13,2.13s-.95,2.13-2.13,2.13h-25.87l-9.9,10.08c-.91.85-2.02,1.27-3.13,1.27Z"/>
      <g>
        <path class="cls-1" d="M52.23,19.99h-24.32c-1.18,0-2.13-.95-2.13-2.13s.95-2.13,2.13-2.13h24.32c1.18,0,2.13.95,2.13,2.13s-.95,2.13-2.13,2.13Z"/>
        <path class="cls-1" d="M74.27,51.09h-7.96c-1.18,0-2.13-.95-2.13-2.13s.95-2.13,2.13-2.13h7.96c1.18,0,2.13.95,2.13,2.13s-.95,2.13-2.13,2.13Z"/>
        <path class="cls-1" d="M74.27,31.58H27.91c-1.18,0-2.13-.95-2.13-2.13s.95-2.13,2.13-2.13h46.36c1.18,0,2.13.95,2.13,2.13s-.95,2.13-2.13,2.13Z"/>
      </g>
    </g>
  </g>
</svg>