<?xml version="1.0" encoding="UTF-8"?>
<svg id="Camada_2" data-name="Camada 2" xmlns="http://www.w3.org/2000/svg" viewBox="0 0 109.34 93.54">
  <defs>
    <style>
      .cls-1 {
        fill: #fff;
        fill-rule: evenodd;
      }
    </style>
  </defs>
  <g id="Camada_1-2" data-name="Camada 1">
    <g>
      <g>
        <g>
          <g>
            <path class="cls-1" d="M54.7,80.61c-1.81,0-3.41-1.04-4.12-2.7l-18.66-43.01c-1.69-3.92-2.37-8.01-1.99-12.22.36-3.92,1.66-7.77,3.8-11.12,2.11-3.32,4.98-6.14,8.3-8.13C45.59,1.3,49.53.17,53.78.02c.62-.03,1.25-.03,1.84,0,4.21.15,8.16,1.31,11.75,3.41,3.32,1.99,6.2,4.8,8.3,8.13,2.14,3.35,3.44,7.21,3.8,11.12.39,4.18-.3,8.3-1.99,12.22l-18.66,43.01c-.74,1.66-2.31,2.7-4.12,2.7h0ZM54.7,3.43h-.8c-7.15.24-13.44,3.89-17.26,9.94-3.83,6.05-4.42,13.58-1.57,20.14l18.66,43.01c.27.59.77.65.98.65s.74-.06.98-.65l18.66-43.01c2.85-6.55,2.25-14.09-1.57-20.14-3.83-6.08-10.14-9.7-17.26-9.94-.27.03-.53,0-.8,0h0Z"/>
            <path class="cls-1" d="M54.7,38.37c-7.44,0-13.53-6.08-13.53-13.53s6.08-13.53,13.53-13.53,13.53,6.08,13.53,13.53-6.08,13.53-13.53,13.53h0ZM54.7,14.73c-5.58,0-10.11,4.54-10.11,10.11s4.54,10.11,10.11,10.11,10.11-4.54,10.11-10.11c-.03-5.58-4.54-10.11-10.11-10.11h0Z"/>
          </g>
          <path class="cls-1" d="M107.64,93.54H1.72c-.59,0-1.13-.3-1.45-.8s-.36-1.13-.09-1.63l12.78-26.93c.3-.59.89-.98,1.54-.98h32.27c.95,0,1.72.77,1.72,1.72s-.77,1.72-1.72,1.72H15.6l-11.18,23.52h100.52l-11.18-23.52h-31.17c-.95,0-1.72-.77-1.72-1.72s.77-1.72,1.72-1.72h32.27c.65,0,1.25.39,1.54.98l12.78,26.93c.24.53.21,1.16-.09,1.63-.33.47-.86.8-1.45.8h0Z"/>
        </g>
        <path class="cls-1" d="M45.32,93.54c-.5,0-1.01-.24-1.36-.68l-20.64-26.93c-.56-.74-.44-1.81.33-2.4s1.81-.44,2.4.33l20.64,26.93c.56.74.44,1.81-.33,2.4-.3.24-.68.36-1.04.36h0Z"/>
        <path class="cls-1" d="M58.67,75.63c-.62,0-1.22-.36-1.51-.95-.42-.83-.09-1.87.74-2.28l17.91-9.05c.83-.42,1.87-.09,2.28.74s.09,1.87-.74,2.28l-17.91,9.05c-.24.15-.5.21-.77.21h0Z"/>
        <path class="cls-1" d="M39.15,85.47c-.62,0-1.22-.36-1.51-.95-.42-.83-.09-1.87.74-2.28l12.96-6.55c.83-.42,1.87-.09,2.28.74s.09,1.87-.74,2.28l-12.96,6.55c-.24.15-.5.21-.77.21h0Z"/>
        <path class="cls-1" d="M88.95,93.54c-.3,0-.59-.09-.86-.24-.8-.47-1.07-1.54-.59-2.34l10.41-17.5c.47-.8,1.54-1.07,2.34-.59s1.07,1.54.59,2.34l-10.41,17.5c-.36.53-.92.83-1.48.83Z"/>
      </g>
      <path class="cls-1" d="M73.83,93.54c-.74,0-1.42-.5-1.63-1.25l-6.2-22.42c-.24-.92.3-1.84,1.19-2.11.92-.24,1.84.3,2.11,1.19l6.2,22.42c.24.92-.3,1.84-1.19,2.11-.18.03-.33.06-.47.06Z"/>
      <path class="cls-1" d="M17.41,93.54c-.42,0-.83-.15-1.16-.44l-10.89-10.14c-.68-.65-.74-1.72-.09-2.4s1.72-.74,2.4-.09l10.89,10.11c.68.65.74,1.72.09,2.4-.33.36-.8.56-1.25.56Z"/>
    </g>
  </g>
</svg>