<svg id="svg" version="1.1" xmlns="http://www.w3.org/2000/svg" xmlns:xlink="http://www.w3.org/1999/xlink" width="400" height="400" viewBox="0, 0, 400,400"><g id="svgg"><path id="path0" d="M166.204 19.685 C 161.907 21.557,161.723 22.595,161.721 45.020 C 161.720 55.493,161.654 64.063,161.574 64.062 C 159.220 64.062,144.134 69.860,137.439 73.338 L 131.645 76.348 116.701 61.455 L 101.758 46.562 99.538 46.110 C 97.242 45.643,95.378 45.916,93.444 47.002 C 92.440 47.565,49.171 90.652,48.039 92.216 C 47.055 93.574,46.689 96.679,47.258 98.838 C 47.671 100.407,49.222 102.093,62.368 115.273 L 77.017 129.961 74.416 135.153 C 70.371 143.224,67.377 151.114,65.413 158.876 L 64.698 161.698 44.947 161.806 C 22.607 161.928,23.387 161.821,21.013 165.098 L 19.857 166.694 19.905 200.420 L 19.952 234.146 20.816 235.711 C 21.291 236.571,22.471 237.809,23.438 238.462 L 25.195 239.648 44.930 239.760 L 64.665 239.871 65.570 243.080 C 67.573 250.187,70.830 258.385,74.916 266.602 C 76.205 269.193,76.752 270.705,76.541 271.094 C 76.367 271.416,69.959 277.920,62.301 285.547 C 47.921 299.870,47.461 300.398,47.031 303.086 C 46.385 307.128,45.605 306.196,70.335 330.953 C 93.536 354.178,94.515 355.048,97.489 355.070 C 100.916 355.094,101.415 354.685,116.825 339.209 L 131.429 324.543 137.687 327.672 C 145.675 331.666,155.038 335.280,160.840 336.609 C 161.323 336.719,161.728 337.009,161.740 337.253 C 161.751 337.496,161.795 346.309,161.837 356.836 L 161.914 375.977 162.830 377.838 C 163.490 379.177,164.256 379.998,165.565 380.767 L 167.383 381.836 200.228 381.944 L 233.073 382.052 235.172 380.956 C 236.840 380.085,237.474 379.465,238.264 377.930 L 239.258 375.999 239.372 356.413 L 239.487 336.827 243.864 335.567 C 249.875 333.836,256.076 331.335,263.493 327.651 L 269.759 324.538 284.196 339.062 C 299.887 354.847,299.872 354.834,303.320 354.863 C 307.061 354.895,307.134 354.831,330.694 330.980 C 353.939 307.448,353.995 307.382,353.992 303.869 C 353.988 300.592,353.888 300.470,338.478 285.103 L 324.154 270.819 326.306 266.528 C 330.224 258.716,334.152 248.509,335.933 241.514 L 336.353 239.865 355.969 239.757 C 378.229 239.634,377.495 239.738,379.883 236.357 L 381.055 234.699 381.159 201.135 C 381.275 163.590,381.444 166.001,378.521 163.541 C 376.454 161.802,375.459 161.723,355.414 161.721 L 336.414 161.719 335.560 158.553 C 333.466 150.794,331.258 145.000,327.109 136.374 C 325.519 133.070,324.219 130.267,324.219 130.146 C 324.219 130.025,330.791 123.324,338.823 115.256 C 355.076 98.930,354.836 99.253,353.873 94.966 C 353.216 92.041,352.877 91.672,330.077 69.044 C 305.460 44.611,306.160 45.188,302.072 45.929 C 299.335 46.425,298.310 47.322,283.944 61.806 L 269.638 76.230 263.823 73.326 C 257.614 70.225,249.968 67.178,243.457 65.211 L 239.453 64.002 239.453 45.158 C 239.453 22.575,239.324 21.852,234.889 19.578 C 233.552 18.892,167.788 18.995,166.204 19.685 M234.297 21.252 C 234.877 21.554,235.791 22.271,236.328 22.846 L 237.305 23.891 237.412 44.328 C 237.494 59.874,237.635 64.856,237.998 65.145 C 238.261 65.354,240.738 66.180,243.503 66.980 C 250.614 69.040,255.285 70.949,264.152 75.420 C 267.102 76.908,269.694 78.125,269.912 78.125 C 270.131 78.125,276.858 71.515,284.862 63.437 C 301.573 46.569,301.619 46.535,305.736 48.065 C 306.978 48.526,350.913 92.190,351.783 93.828 C 353.749 97.527,353.735 97.546,336.912 114.640 C 328.964 122.716,322.405 129.486,322.336 129.684 C 322.268 129.883,323.348 132.381,324.738 135.237 C 329.350 144.717,331.730 150.977,334.546 161.025 L 335.172 163.261 354.988 163.369 C 377.470 163.491,377.021 163.430,378.799 166.602 L 379.675 168.164 379.672 200.586 C 379.670 237.160,379.829 235.206,376.706 237.147 L 375.195 238.086 355.296 238.181 C 344.351 238.233,335.272 238.409,335.120 238.572 C 334.969 238.734,334.286 240.856,333.604 243.286 C 331.554 250.587,329.502 255.790,324.903 265.351 L 322.122 271.132 336.999 286.054 C 353.061 302.165,352.703 301.709,352.150 305.398 C 351.885 307.169,351.393 307.695,329.112 330.040 L 306.346 352.873 303.957 353.046 C 300.699 353.281,301.454 353.912,285.024 337.250 C 277.109 329.223,270.396 322.656,270.106 322.656 C 269.816 322.656,266.615 324.138,262.992 325.949 C 254.575 330.155,249.753 332.024,240.039 334.843 C 239.180 335.093,238.261 335.459,237.998 335.657 C 237.635 335.930,237.494 340.855,237.412 356.261 C 237.290 379.229,237.502 377.788,233.976 379.590 L 232.256 380.469 200.551 380.469 C 166.411 380.469,167.259 380.517,165.381 378.452 C 163.667 376.567,163.672 376.631,163.666 356.178 C 163.663 345.368,163.505 336.279,163.316 335.981 C 163.127 335.682,160.949 334.856,158.476 334.145 C 151.470 332.131,146.896 330.309,138.867 326.332 C 134.784 324.310,131.258 322.656,131.031 322.656 C 130.804 322.656,124.124 329.263,116.188 337.338 C 99.879 353.931,100.663 353.301,96.492 353.168 C 95.091 353.124,50.858 309.725,49.388 306.953 C 47.305 303.026,47.337 302.981,64.508 285.730 C 72.427 277.774,78.906 271.130,78.906 270.966 C 78.906 270.801,78.216 269.400,77.373 267.853 C 73.549 260.835,69.336 250.145,66.333 239.844 L 65.820 238.086 45.898 238.086 C 23.562 238.086,24.396 238.189,22.365 235.175 L 21.484 233.869 21.484 200.874 C 21.484 168.109,21.490 167.870,22.302 166.424 C 24.091 163.242,22.372 163.371,63.954 163.285 L 65.994 163.281 66.619 161.035 C 69.633 150.204,71.245 145.840,75.447 137.134 C 77.359 133.173,78.875 129.788,78.816 129.612 C 78.757 129.436,72.294 122.856,64.452 114.989 C 48.570 99.054,48.834 99.362,48.831 96.803 C 48.826 93.802,48.699 93.946,71.866 70.873 C 95.811 47.024,95.072 47.691,97.571 47.670 C 100.521 47.646,101.417 48.396,116.374 63.432 C 124.413 71.513,131.162 78.125,131.372 78.125 C 131.583 78.125,133.970 77.002,136.678 75.630 C 145.684 71.066,156.694 66.774,161.900 65.797 C 162.777 65.633,163.301 65.304,163.335 64.898 C 163.517 62.712,163.560 59.276,163.613 42.929 L 163.672 24.725 164.559 23.398 C 166.460 20.552,164.415 20.704,200.703 20.704 C 227.888 20.703,233.415 20.793,234.297 21.252 M181.678 34.869 C 179.319 36.081,179.348 35.867,179.237 52.829 C 179.135 68.300,179.240 69.705,180.435 68.966 C 180.728 68.785,180.863 63.985,180.872 53.395 C 180.885 37.276,180.876 37.358,182.689 36.392 C 183.761 35.821,216.629 35.745,218.115 36.309 C 219.932 37.000,219.975 37.405,219.936 53.491 C 219.902 67.136,219.962 68.682,220.531 68.900 C 221.805 69.389,221.875 68.588,221.875 53.473 C 221.875 36.657,221.873 36.639,219.415 35.140 C 217.858 34.191,183.478 33.944,181.678 34.869 M93.945 68.693 C 91.708 70.159,69.208 93.149,68.931 94.252 C 68.370 96.488,68.988 97.261,80.684 108.974 C 91.700 120.004,92.210 120.457,92.868 119.786 C 93.526 119.115,93.072 118.608,82.129 107.790 C 72.713 98.481,70.703 96.306,70.703 95.429 C 70.703 94.175,94.337 70.153,95.976 69.742 C 97.362 69.394,97.324 69.362,109.439 81.489 C 117.735 89.794,120.802 92.635,121.125 92.313 C 121.973 91.464,120.996 90.324,110.007 79.341 L 98.912 68.253 97.014 68.089 C 95.586 67.966,94.828 68.115,93.945 68.693 M302.148 68.704 C 298.844 70.769,279.145 91.422,279.830 92.104 C 280.465 92.737,281.119 92.154,291.716 81.508 C 303.688 69.481,303.853 69.338,305.183 69.760 C 306.238 70.095,329.129 92.732,329.910 94.213 C 330.788 95.879,330.484 96.255,318.786 107.978 C 308.109 118.680,306.772 120.313,308.694 120.313 C 309.574 120.313,331.549 97.974,331.848 96.775 C 332.529 94.050,332.271 93.718,319.608 81.068 C 305.432 66.907,305.241 66.772,302.148 68.704 M190.430 89.870 C 133.279 95.266,89.746 142.860,89.696 200.000 C 89.650 254.037,126.319 298.460,180.273 309.728 C 191.832 312.142,208.926 312.078,221.289 309.575 C 284.171 296.843,322.436 237.284,308.252 174.219 C 296.512 122.016,244.480 84.767,190.430 89.870 M215.820 92.214 C 258.993 98.293,296.418 131.644,306.087 172.656 C 322.661 242.956,273.677 308.116,203.099 309.655 C 127.464 311.305,73.469 238.464,96.766 166.211 C 112.763 116.600,163.785 84.888,215.820 92.214 M190.234 107.621 C 121.783 116.135,85.433 189.774,120.543 248.807 C 130.445 265.456,150.938 282.272,168.555 288.203 C 172.964 289.687,177.148 290.927,179.102 291.327 C 188.637 293.279,189.751 293.410,198.866 293.638 C 259.337 295.153,304.875 238.758,291.352 179.102 C 281.041 133.615,236.185 101.906,190.234 107.621 M213.477 109.553 C 220.775 110.638,229.031 112.816,233.398 114.810 C 234.258 115.202,235.400 115.657,235.938 115.821 C 237.909 116.423,245.325 120.341,249.652 123.067 C 303.014 156.676,306.621 233.920,256.641 272.715 C 236.938 288.008,208.722 295.475,186.719 291.218 C 121.109 278.524,88.480 209.940,121.395 153.911 C 136.218 128.679,160.073 113.543,192.188 108.993 C 195.663 108.501,208.706 108.844,213.477 109.553 M189.648 116.594 C 147.160 122.451,116.045 157.867,116.019 200.401 C 115.993 242.789,147.532 278.510,189.995 284.186 C 195.622 284.939,210.015 284.855,213.281 284.051 C 214.248 283.813,217.324 283.091,220.117 282.446 C 267.224 271.565,295.653 221.417,281.028 175.000 C 268.827 136.274,229.452 111.107,189.648 116.594 M210.938 118.146 C 218.819 119.430,222.741 120.395,228.241 122.407 C 284.079 142.837,301.253 211.659,261.557 255.919 C 250.095 268.699,233.794 278.123,217.383 281.456 C 215.664 281.805,213.555 282.263,212.695 282.475 C 209.621 283.232,196.689 283.340,191.144 282.654 C 145.188 276.976,113.039 236.295,118.263 190.429 C 120.918 167.116,135.019 144.330,154.725 131.511 C 166.000 124.176,177.158 120.091,191.602 118.010 C 195.402 117.463,207.251 117.546,210.938 118.146 M195.703 129.742 C 150.191 132.352,118.687 178.877,133.052 222.266 C 149.742 272.679,213.072 287.845,250.386 250.365 C 296.507 204.038,261.125 125.990,195.703 129.742 M215.234 132.744 C 258.320 143.827,280.731 186.833,264.247 226.798 C 250.617 259.845,212.684 277.531,179.492 266.315 C 138.859 252.585,120.017 208.769,138.269 170.457 C 147.114 151.891,164.011 138.268,184.715 133.008 C 193.322 130.822,207.293 130.701,215.234 132.744 M178.634 167.655 C 177.304 168.298,176.917 170.021,177.200 174.043 C 177.339 176.021,177.337 178.098,177.197 178.658 L 176.941 179.677 163.763 179.780 C 152.356 179.869,150.586 179.962,150.586 180.469 C 150.586 180.976,152.357 181.069,163.770 181.158 L 176.953 181.260 176.953 186.363 L 176.953 191.466 178.095 192.608 L 179.237 193.750 200.391 193.750 L 221.544 193.750 222.686 192.608 L 223.828 191.466 223.828 186.363 L 223.828 181.260 237.006 181.158 C 249.200 181.062,250.195 181.004,250.316 180.371 C 250.440 179.731,249.604 179.688,237.138 179.688 L 223.828 179.688 223.828 174.823 C 223.828 169.582,223.505 168.303,222.009 167.621 C 220.713 167.031,179.860 167.062,178.634 167.655 M221.465 169.437 C 222.712 170.447,222.572 190.713,221.312 191.634 C 220.282 192.386,180.124 192.467,179.375 191.719 C 179.033 191.377,178.906 188.313,178.906 180.378 L 178.906 169.506 179.785 169.153 C 181.648 168.404,220.517 168.669,221.465 169.437 M182.609 172.733 C 182.073 174.129,182.615 188.477,183.203 188.477 C 183.998 188.477,184.094 172.628,183.301 172.363 C 183.033 172.274,182.721 172.440,182.609 172.733 M216.984 172.733 C 216.374 174.321,216.999 188.468,217.684 188.599 C 218.571 188.770,218.563 172.658,217.676 172.363 C 217.408 172.274,217.096 172.440,216.984 172.733 M37.524 180.011 C 34.745 181.501,34.766 181.345,34.766 200.697 C 34.766 219.409,34.729 219.057,36.908 221.094 L 37.953 222.070 53.547 222.181 C 68.915 222.290,69.141 222.280,69.141 221.510 C 69.141 220.745,68.841 220.727,53.937 220.619 L 38.734 220.508 37.726 219.561 L 36.719 218.614 36.719 200.748 L 36.719 182.882 37.921 181.871 L 39.122 180.859 53.936 180.859 C 68.490 180.859,68.750 180.846,68.750 180.078 C 68.750 178.915,39.684 178.852,37.524 180.011 M332.031 180.078 C 332.031 180.846,332.292 180.859,347.115 180.859 L 362.199 180.859 363.179 181.934 L 364.158 183.008 364.089 200.749 C 364.046 211.763,363.871 218.769,363.627 219.225 C 362.903 220.578,361.463 220.703,346.654 220.703 C 332.292 220.703,332.031 220.717,332.031 221.484 C 332.031 222.797,361.749 222.694,363.706 221.375 C 366.044 219.800,366.004 220.153,366.010 201.062 C 366.016 181.728,365.996 181.550,363.598 180.088 C 361.585 178.861,332.031 178.852,332.031 180.078 M178.433 207.054 C 177.399 207.657,176.958 209.952,176.955 214.741 L 176.953 219.130 163.770 219.233 C 152.357 219.322,150.586 219.415,150.586 219.922 C 150.586 220.429,152.357 220.522,163.770 220.611 L 176.953 220.714 176.993 222.564 C 177.014 223.581,176.999 225.004,176.959 225.725 C 176.521 233.584,175.301 233.200,200.714 233.202 L 221.544 233.203 222.686 232.061 L 223.828 230.919 223.828 225.811 L 223.828 220.703 237.138 220.703 C 249.604 220.703,250.440 220.660,250.316 220.020 C 250.195 219.387,249.200 219.328,237.006 219.233 L 223.828 219.130 223.828 213.915 C 223.828 208.802,223.808 208.680,222.798 207.670 L 221.768 206.641 200.435 206.653 C 186.981 206.660,178.855 206.808,178.433 207.054 M221.652 208.817 C 222.467 209.632,222.581 229.499,221.777 230.594 C 221.326 231.208,219.679 231.251,200.195 231.157 L 179.102 231.055 178.998 220.165 C 178.924 212.457,179.024 209.118,179.338 208.739 C 180.054 207.876,220.786 207.951,221.652 208.817 M182.594 212.225 C 182.068 213.594,182.625 227.930,183.203 227.930 C 184.105 227.930,184.289 212.310,183.392 211.965 C 183.057 211.837,182.698 211.954,182.594 212.225 M217.285 211.999 C 216.529 212.270,216.587 227.570,217.345 227.861 C 218.300 228.228,218.359 227.763,218.359 219.880 C 218.359 212.301,218.270 211.646,217.285 211.999 M307.940 280.699 C 307.686 281.362,309.746 283.546,322.967 296.628 C 329.897 303.485,330.111 303.743,329.998 305.142 C 329.827 307.284,306.511 330.859,304.564 330.859 C 303.462 330.859,302.071 329.606,291.936 319.475 C 283.391 310.934,280.382 308.153,279.889 308.342 C 278.906 308.719,278.705 308.486,290.234 320.288 C 303.095 333.452,303.602 333.824,306.562 332.252 C 307.833 331.577,330.985 308.370,331.600 307.155 C 333.021 304.345,333.015 304.336,320.419 291.714 C 308.515 279.786,308.347 279.638,307.940 280.699 M80.566 291.900 L 69.141 303.351 69.154 305.093 C 69.174 307.560,68.901 307.240,82.031 320.178 C 95.103 333.059,95.032 333.002,97.479 332.635 C 99.929 332.268,122.348 309.673,121.291 308.636 C 120.700 308.056,119.780 308.888,109.380 319.397 C 97.573 331.330,97.189 331.642,95.430 330.713 C 93.253 329.563,70.703 306.477,70.703 305.398 C 70.703 304.622,73.154 301.955,82.067 293.033 C 88.317 286.777,93.356 281.435,93.265 281.161 C 92.832 279.861,91.214 281.230,80.566 291.900 M179.297 347.256 C 179.297 368.755,176.710 366.409,200.489 366.481 C 220.020 366.540,220.007 366.542,221.287 364.067 C 222.335 362.041,221.971 331.836,220.898 331.836 C 220.132 331.836,220.115 332.130,220.015 347.441 C 219.914 362.830,219.901 363.058,219.068 363.945 L 218.223 364.844 200.499 364.844 L 182.775 364.844 181.822 363.815 L 180.868 362.786 180.766 347.316 C 180.671 332.941,180.616 331.837,179.980 331.715 C 179.339 331.591,179.297 332.540,179.297 347.256 " stroke="none" fill="#000000" fill-rule="evenodd"></path></g></svg>