<?xml version="1.0" encoding="UTF-8"?>
<svg id="Camada_2" data-name="Camada 2" xmlns="http://www.w3.org/2000/svg" viewBox="0 0 73.92 73.93">
  <defs>
    <style>
      .cls-1 {
        fill: none;
        stroke: #fff;
        stroke-miterlimit: 10;
        stroke-width: 1.5px;
      }
    </style>
  </defs>
  <g id="Camada_1-2" data-name="Camada 1">
    <g>
      <path class="cls-1" d="M3.85,38.47c-.66,0-1.33.02-1.99,0-.95-.03-1.58-.66-1.58-1.51,0-.86.63-1.49,1.59-1.51,1.22-.03,2.45,0,3.67-.01.88,0,.89,0,.97-.91.29-3.34,1.09-6.55,2.45-9.62,2.29-5.16,5.75-9.38,10.3-12.7,4.58-3.34,9.71-5.25,15.37-5.7.66-.05.86-.28.84-.93-.05-1.27-.03-2.53,0-3.8.02-.75.49-1.31,1.14-1.46.64-.16,1.36.11,1.65.7.15.31.22.7.23,1.05.03,1.2.04,2.4,0,3.61-.02.57.16.78.74.82,3.46.25,6.77,1.08,9.93,2.5,5.06,2.27,9.22,5.69,12.5,10.15,2.59,3.52,4.35,7.43,5.23,11.72.25,1.24.4,2.5.53,3.76.06.61.22.85.88.82,1.26-.06,2.53-.02,3.8,0,.69,0,1.2.33,1.46.98.22.57.15,1.17-.32,1.54-.36.28-.87.47-1.33.49-1.18.07-2.36.07-3.54,0-.72-.04-.9.22-.95.89-.25,3.37-1.08,6.59-2.45,9.68-2.26,5.1-5.68,9.27-10.15,12.58-3.52,2.61-7.42,4.37-11.71,5.25-1.32.27-2.67.41-4.01.56-.47.05-.62.22-.61.68.03,1.33.02,2.66,0,3.99,0,.69-.34,1.2-.99,1.44-.57.21-1.16.14-1.53-.34-.27-.34-.46-.84-.48-1.27-.06-1.24-.05-2.49-.01-3.73.02-.56-.16-.74-.71-.78-3.41-.26-6.68-1.07-9.82-2.45-5.14-2.27-9.35-5.71-12.67-10.24-3.38-4.61-5.3-9.78-5.75-15.48-.04-.59-.22-.84-.84-.78-.6.05-1.2.01-1.8.01h0ZM35.42,9.47c-7.48.58-13.68,3.6-18.67,9.01-4.39,4.76-6.84,10.39-7.28,16.96.84,0,1.57-.05,2.29.02.69.06.89-.24.93-.86.15-2.29.73-4.48,1.57-6.61,1.21-3.08,3-5.78,5.31-8.14.47-.48,1.04-.69,1.7-.41.61.26,1,.75.92,1.4-.05.41-.26.88-.55,1.18-3.03,3.16-4.94,6.88-5.74,11.17-.13.72-.18,1.46-.27,2.25,1.41,0,2.67-.01,3.94,0,1.02.01,1.72.65,1.71,1.52,0,.88-.71,1.49-1.74,1.51-.52.01-1.03,0-1.55,0h-2.47c.28,1.45.44,2.79.8,4.08,1.69,6.02,5.34,10.49,10.86,13.41,2.36,1.25,4.89,1.97,7.54,2.25.53.06.73-.09.71-.65-.04-1.05-.03-2.1,0-3.16,0-.33.06-.69.2-.99.27-.58.97-.9,1.56-.78.71.14,1.23.73,1.25,1.51.03,1.16.03,2.32,0,3.48-.01.49.17.68.64.59,1.3-.25,2.65-.37,3.9-.78,8.22-2.68,13.2-8.3,14.99-16.75.15-.7.17-1.42.27-2.21h-.82c-.99,0-1.98,0-2.96,0-1.14,0-1.86-.59-1.87-1.51s.72-1.52,1.84-1.53c.54,0,1.07,0,1.61,0h2.29c-.27-1.43-.43-2.77-.78-4.06-1.68-5.99-5.3-10.46-10.78-13.4-2.39-1.28-4.96-2.02-7.66-2.29-.5-.05-.69.1-.67.63.03,1.07.02,2.15,0,3.22-.01,1.04-.62,1.74-1.49,1.75-.89.02-1.53-.7-1.54-1.76-.01-1.03-.04-2.06.01-3.09.03-.66-.22-.85-.82-.73-1.09.2-2.19.41-3.29.6-.99.17-1.79-.54-1.76-1.54.02-.75.49-1.29,1.38-1.46,1.26-.24,2.54-.42,3.81-.63.3-.05.67,0,.66-.5-.02-.86,0-1.71,0-2.7ZM64.36,35.43c-.56-14.45-13.65-25.75-25.89-25.84,0,.88-.02,1.75.02,2.63,0,.15.26.37.43.41.5.1,1.02.11,1.53.18,4.79.73,9.03,2.68,12.65,5.9,3.86,3.44,6.42,7.67,7.58,12.72.26,1.13.38,2.28.56,3.42.05.3.06.6.5.59.86-.02,1.71,0,2.61,0ZM38.48,64.39c14.5-.71,25.59-13.46,25.86-25.91h-1.53q-1.5,0-1.65,1.52c-.01.1-.03.21-.05.32-.71,4.87-2.67,9.16-5.94,12.83-3.42,3.84-7.64,6.39-12.66,7.55-1.12.26-2.29.36-3.42.57-.22.04-.58.25-.58.4-.06.89-.03,1.79-.03,2.73ZM9.53,38.48c.67,14.92,14.12,25.81,25.9,25.83,0-.73-.05-1.46.02-2.18.06-.7-.25-.85-.87-.93-1.27-.16-2.56-.33-3.8-.65-3.74-.96-7.07-2.74-9.95-5.31-3.86-3.44-6.44-7.66-7.61-12.7-.27-1.14-.37-2.33-.59-3.48-.04-.21-.28-.54-.44-.55-.87-.05-1.75-.03-2.67-.03Z"/>
      <path class="cls-1" d="M35.43,26.93c0-.45-.02-.9,0-1.35.04-.92.71-1.6,1.52-1.6.82,0,1.46.7,1.51,1.62.02.45-.09,1,.14,1.3.2.27.78.23,1.19.36,3.95,1.29,6.26,4.03,7.17,8.16.4,0,.84-.01,1.28,0,.96.03,1.67.69,1.66,1.53,0,.84-.72,1.47-1.68,1.51-1.23.04-1.21.05-1.59,1.26-1.27,3.98-4.01,6.32-8.17,7.25,0,.38,0,.8,0,1.22-.02,1.01-.67,1.74-1.53,1.73-.86,0-1.48-.73-1.51-1.75-.03-1.18-.03-1.16-1.13-1.5-4.06-1.23-6.42-4-7.37-8.2-.37,0-.8,0-1.22,0-1.01-.03-1.73-.67-1.73-1.53,0-.84.72-1.47,1.68-1.51,1.23-.04,1.21-.05,1.57-1.2,1.25-4.02,4.01-6.37,8.2-7.31ZM35.42,30.1c-2.54.41-5.03,2.93-5.31,5.32,1.65,0,3.3,0,4.94-.02.12,0,.35-.21.35-.33.02-1.65.02-3.29.02-4.98ZM43.8,35.43c-.43-2.8-3.33-5.22-5.32-5.25,0,1.63,0,3.25.02,4.87,0,.13.25.36.38.36,1.62.03,3.25.02,4.92.02ZM38.47,43.79c2.53-.27,5.26-3.18,5.23-5.28-.06,0-.13-.02-.19-.02-1.15,0-2.31,0-3.47,0q-1.57,0-1.57,1.59v3.72ZM35.42,43.77c0-1.65,0-3.29-.02-4.93,0-.12-.23-.33-.35-.33-1.64-.02-3.29-.02-4.94-.02.23,2.38,2.98,5.12,5.3,5.28Z"/>
      <path class="cls-1" d="M25.53,15.43c.81.01,1.46.67,1.46,1.49,0,.85-.67,1.51-1.52,1.5-.78-.01-1.48-.71-1.48-1.49,0-.8.72-1.51,1.54-1.5Z"/>
    </g>
  </g>
</svg>