<svg id="svg" version="1.1" xmlns="http://www.w3.org/2000/svg" xmlns:xlink="http://www.w3.org/1999/xlink" width="400" height="400" viewBox="0, 0, 400,400"><g id="svgg"><path id="path0" d="M146.875 49.659 C 141.826 51.811,133.389 55.388,128.125 57.608 C 120.845 60.678,118.439 61.863,118.072 62.560 C 117.719 63.232,117.588 66.832,117.584 76.031 L 117.578 88.586 113.184 92.237 C 107.226 97.187,98.499 105.771,94.074 111.034 C 92.069 113.418,89.966 115.903,89.400 116.557 L 88.369 117.746 76.094 117.644 C 62.234 117.528,62.020 117.562,60.957 120.018 C 56.500 130.309,46.057 155.548,45.873 156.472 C 45.448 158.600,46.620 160.176,55.091 168.870 L 63.391 177.389 63.153 180.003 C 63.023 181.441,62.740 184.083,62.526 185.875 C 61.437 194.965,61.659 208.723,63.055 218.729 L 63.570 222.419 55.166 231.034 C 47.182 239.218,45.703 241.086,45.703 242.986 C 45.703 243.439,48.447 250.256,51.802 258.135 C 55.156 266.014,58.776 274.526,59.846 277.051 C 60.917 279.575,61.908 281.712,62.049 281.799 C 62.190 281.886,68.244 282.087,75.503 282.245 L 88.701 282.533 92.086 286.677 C 96.469 292.041,107.578 303.156,113.184 307.785 L 117.578 311.414 117.578 323.853 C 117.578 332.141,117.723 336.609,118.012 337.244 C 118.414 338.126,152.635 353.185,156.348 354.113 C 158.416 354.630,159.426 353.889,168.237 345.394 L 177.033 336.914 178.849 336.934 C 179.847 336.945,184.092 337.274,188.281 337.665 C 197.176 338.495,206.773 338.365,216.474 337.283 L 222.597 336.601 231.406 345.143 C 240.548 354.010,241.172 354.486,243.237 354.160 C 246.098 353.708,281.533 338.241,281.987 337.246 C 282.277 336.608,282.422 332.159,282.422 323.849 L 282.422 311.407 287.012 307.600 C 294.485 301.402,306.170 289.258,311.211 282.452 C 311.278 282.361,316.920 282.330,323.749 282.383 C 332.697 282.453,336.449 282.350,337.184 282.015 C 338.147 281.576,346.169 263.685,352.806 247.174 C 355.217 241.175,355.981 242.499,341.669 227.863 C 337.639 223.742,336.311 222.145,336.472 221.613 C 338.478 214.975,338.473 186.801,336.465 178.635 C 336.292 177.930,337.771 176.208,344.787 168.946 C 353.421 160.010,354.538 158.532,354.145 156.565 C 353.968 155.679,347.599 140.397,339.587 121.634 C 337.762 117.359,338.620 117.578,323.698 117.578 L 311.104 117.578 309.611 115.577 C 304.668 108.957,293.704 97.814,286.402 91.990 L 282.487 88.867 282.357 75.889 C 282.233 63.520,282.190 62.875,281.445 62.142 C 280.756 61.463,263.616 54.008,248.358 47.751 C 241.173 44.805,242.320 44.325,231.442 54.832 L 222.597 63.374 220.771 63.136 C 207.758 61.436,193.335 61.370,180.764 62.953 L 177.348 63.383 168.929 55.227 C 157.107 43.774,159.352 44.341,146.875 49.659 M166.973 57.003 C 176.743 66.684,175.999 66.268,182.032 65.422 C 191.410 64.107,209.200 64.222,219.531 65.665 C 223.573 66.229,223.299 66.406,233.084 56.879 C 238.550 51.557,242.044 48.438,242.539 48.438 C 242.971 48.438,250.847 51.626,260.041 55.523 C 269.235 59.420,277.417 62.875,278.223 63.200 L 279.688 63.790 279.688 76.600 C 279.688 91.502,278.987 89.310,285.454 94.652 C 292.974 100.863,299.306 107.253,306.530 115.918 L 310.193 120.313 323.192 120.313 L 336.191 120.313 343.877 138.428 C 348.104 148.391,351.562 156.939,351.563 157.422 C 351.563 158.043,349.043 160.857,342.986 167.001 C 333.062 177.068,333.620 175.952,334.603 183.765 C 335.644 192.034,335.651 208.409,334.617 216.470 C 333.657 223.957,333.100 222.859,343.016 233.012 C 351.204 241.396,351.644 241.922,351.451 243.097 C 351.244 244.349,336.925 278.295,336.222 279.199 C 335.931 279.572,332.803 279.688,322.964 279.688 L 310.086 279.688 309.183 280.762 C 308.686 281.353,306.526 283.945,304.382 286.523 C 299.141 292.827,292.174 299.774,285.585 305.269 C 278.984 310.774,279.688 308.604,279.688 323.459 L 279.688 335.917 278.613 336.472 C 275.620 338.017,243.241 351.563,242.542 351.563 C 242.013 351.562,238.670 348.600,232.956 343.066 C 222.433 332.875,223.950 333.684,217.083 334.605 C 209.526 335.620,190.450 335.644,183.332 334.649 C 175.760 333.590,177.399 332.769,167.127 342.773 C 161.967 347.799,157.795 351.563,157.382 351.563 C 156.719 351.563,143.336 346.003,127.148 339.003 L 120.508 336.131 120.313 323.157 C 120.149 312.308,120.021 310.093,119.531 309.632 C 119.209 309.328,116.753 307.257,114.072 305.028 C 107.678 299.711,100.487 292.487,94.793 285.660 C 89.215 278.970,91.424 279.688,76.390 279.688 L 63.781 279.688 61.705 274.707 C 60.564 271.968,57.112 263.865,54.034 256.700 C 50.956 249.536,48.438 243.239,48.438 242.706 C 48.438 241.972,50.512 239.616,57.032 232.945 C 66.895 222.855,66.341 223.946,65.383 216.470 C 64.345 208.372,64.347 191.588,65.387 183.548 C 66.359 176.044,66.913 177.135,56.979 166.992 C 46.704 156.499,47.191 159.340,53.231 145.117 C 55.694 139.316,59.067 131.362,60.726 127.441 L 63.742 120.313 76.773 120.313 L 89.805 120.313 91.289 118.492 C 99.059 108.959,106.055 101.707,113.462 95.508 C 116.028 93.359,118.620 91.132,119.220 90.557 L 120.313 89.513 120.313 76.668 L 120.313 63.822 138.379 56.142 C 148.315 51.918,156.869 48.456,157.386 48.450 C 158.097 48.440,160.446 50.536,166.973 57.003 M191.992 94.162 C 102.889 101.538,61.712 208.819,123.321 273.074 C 187.109 339.600,299.164 298.940,305.868 206.836 C 310.471 143.588,255.228 88.928,191.992 94.162 M215.234 97.614 C 293.308 110.101,329.807 200.096,282.146 262.600 C 279.173 266.500,270.143 276.172,269.476 276.172 C 269.292 276.172,269.138 268.569,269.135 259.277 C 269.131 244.311,269.047 241.981,268.401 238.867 C 264.906 222.021,251.408 209.492,233.048 206.051 C 227.987 205.103,227.798 205.169,226.504 208.334 C 217.422 230.546,181.609 230.590,173.625 208.398 C 172.383 204.947,170.088 204.733,161.547 207.271 C 141.138 213.336,130.590 228.861,130.594 252.832 C 130.594 253.853,130.566 259.562,130.532 265.520 L 130.469 276.353 126.531 272.454 C 64.427 210.959,103.682 105.576,191.992 96.718 C 196.097 96.306,210.539 96.863,215.234 97.614 M192.232 122.847 C 154.472 131.374,151.774 183.463,188.493 195.039 C 222.279 205.691,250.849 168.450,231.522 138.950 C 223.330 126.446,206.620 119.597,192.232 122.847 M208.671 125.746 C 232.785 131.957,243.034 160.504,228.189 180.113 C 212.243 201.178,179.434 197.936,168.181 174.184 C 155.695 147.830,180.270 118.430,208.671 125.746 M171.274 209.863 C 177.633 225.953,200.597 232.812,216.534 223.382 C 221.521 220.432,227.540 213.710,228.908 209.564 L 229.378 208.141 231.388 208.413 C 245.345 210.302,257.580 219.057,263.170 231.156 C 266.335 238.007,266.497 239.337,266.700 260.216 L 266.882 278.829 263.812 281.277 C 226.878 310.727,173.085 310.732,136.201 281.290 L 133.144 278.850 133.298 260.226 C 133.447 242.338,133.488 241.470,134.343 238.281 C 138.393 223.166,149.896 212.391,165.625 208.978 C 170.472 207.927,170.512 207.933,171.274 209.863 " fill="#ffffff" stroke="#ffffff" stroke-width="3px" fill-rule="evenodd"></path></g></svg>