<?xml version="1.0" encoding="UTF-8"?>
<svg id="Camada_2" data-name="Camada 2" xmlns="http://www.w3.org/2000/svg" viewBox="0 0 91.98 91.99">
  <defs>
    <style>
      .cls-1 {
        fill: #fff;
      }
    </style>
  </defs>
  <g id="Camada_1-2" data-name="Camada 1">
    <path class="cls-1" d="M5.21,45.49c3.87,8.57,9.77,16.94,17.05,24.23s15.66,13.18,24.23,17.05c4.29,1.96,8.79,3.42,13.42,4.34,2.97.58,5.98.87,9.01.88,1.52,0,3.04-.08,4.55-.24.02,0,.04,0,.06,0,6.57-.37,12.59-3.81,16.25-9.29.56-.83.92-1.78,1.06-2.78l1.07-7.37c.45-2.9-1.04-5.75-3.67-7.04l-16.24-8.18c-2.89-1.45-6.41-.66-8.41,1.88l-5.3,6.79c-.29.4-.82.55-1.28.37-13.28-4.77-26.39-17.87-31.15-31.15-.18-.46-.03-.98.37-1.28l6.79-5.3c2.55-2,3.34-5.52,1.88-8.41L26.72,3.75C25.43,1.12,22.57-.37,19.68.08l-7.37,1.07c-.99.14-1.95.5-2.78,1.06C4.05,5.86.61,11.88.24,18.46c0,.02,0,.04,0,.06-.46,4.53-.25,9.09.64,13.56.92,4.63,2.37,9.13,4.34,13.42h0ZM65.85,60.74c1.14-1.49,3.18-1.94,4.85-1.09l16.24,8.18c1.52.75,2.37,2.39,2.11,4.06l-.47,3.24c-2.58-.95-5.2-2.04-7.79-3.25-5.69-2.68-11.15-5.81-16.33-9.38l1.38-1.77ZM20.09,2.92c.19-.03.39-.04.59-.04,1.48,0,2.82.83,3.47,2.16l8.18,16.24c.86,1.67.4,3.71-1.09,4.85l-1.77,1.38c-3.56-5.18-6.7-10.64-9.38-16.33-1.21-2.59-2.3-5.21-3.25-7.79l3.24-.47ZM3.1,18.83c0-.07.02-.15.02-.22.32-5.67,3.28-10.86,8.01-14,.48-.32,1.03-.53,1.6-.61l1.22-.18c1.02,2.84,2.21,5.73,3.55,8.58,2.77,5.88,6.02,11.53,9.71,16.88l-2.75,2.15c-1.38,1.05-1.91,2.89-1.31,4.51,5.03,14.02,18.86,27.85,32.89,32.89,1.63.6,3.46.07,4.51-1.31l2.15-2.75c5.35,3.69,11,6.94,16.88,9.71,2.86,1.34,5.74,2.53,8.59,3.55l-.18,1.22c-.08.57-.29,1.12-.61,1.6-3.15,4.72-8.34,7.69-14,8.01-.07,0-.15.01-.22.02-4.24.43-8.52.23-12.7-.6-4.41-.88-8.69-2.26-12.78-4.13-8.25-3.73-16.34-9.42-23.38-16.46-7.04-7.04-12.73-15.12-16.46-23.38-1.87-4.08-3.26-8.37-4.13-12.78-.83-4.18-1.04-8.46-.6-12.7h0ZM43.97,25.56h2.31v4.14c0,.79.64,1.44,1.44,1.44.25,0,.5-.07.72-.19l9.33-5.39h.6v5.42c0,1.92,1.56,3.48,3.48,3.48h12.85l9.33,5.39c.69.4,1.57.16,1.96-.53.13-.22.19-.47.19-.72v-4.14h2.31c1.92,0,3.48-1.56,3.48-3.48V12.4c0-1.92-1.56-3.48-3.48-3.48h-14.4V3.49c0-1.92-1.56-3.48-3.48-3.48h-26.64c-1.92,0-3.48,1.56-3.48,3.48v18.59c0,1.92,1.56,3.48,3.48,3.48h0ZM74.09,22.08v-10.29h14.4c.34,0,.61.27.61.61v18.59c0,.34-.27.61-.61.61h-3.74c-.79,0-1.44.64-1.44,1.44v3.09l-7.51-4.34c-.22-.13-.47-.19-.72-.19h-13.23c-.34,0-.61-.27-.61-.61v-5.42h9.37c1.92,0,3.48-1.56,3.48-3.48h0ZM43.36,3.49c0-.34.27-.61.61-.61h26.64c.34,0,.61.27.61.61v18.59c0,.34-.27.61-.61.61h-13.23c-.25,0-.5.07-.72.19l-7.51,4.34v-3.09c0-.79-.64-1.44-1.44-1.44h-3.75c-.34,0-.61-.27-.61-.61V3.49ZM68.65,26.82h15.97c.79,0,1.44.64,1.44,1.44s-.64,1.44-1.44,1.44h-15.97c-.79,0-1.44-.64-1.44-1.44s.64-1.44,1.44-1.44ZM75.57,16.16c0-.79.64-1.44,1.44-1.44h7.61c.79,0,1.44.64,1.44,1.44s-.64,1.44-1.44,1.44h-7.61c-.79,0-1.44-.64-1.44-1.44h0ZM86.05,22.21c0,.79-.64,1.44-1.44,1.44h-7.6c-.79,0-1.44-.64-1.44-1.44s.64-1.44,1.44-1.44h7.6c.79,0,1.44.64,1.44,1.44h0ZM48.4,12.79c0-.79.64-1.44,1.44-1.44s1.44.64,1.44,1.44-.64,1.44-1.44,1.44-1.44-.64-1.44-1.44ZM55.85,12.79c0-.79.64-1.44,1.44-1.44s1.44.64,1.44,1.44-.64,1.44-1.44,1.44-1.44-.64-1.44-1.44ZM63.31,12.79c0-.79.64-1.44,1.44-1.44h0c.79,0,1.44.64,1.44,1.44s-.64,1.44-1.44,1.44-1.44-.64-1.44-1.44h0Z"/>
  </g>
</svg>