<?xml version="1.0" encoding="UTF-8"?>
<svg id="Camada_2" data-name="Camada 2" xmlns="http://www.w3.org/2000/svg" viewBox="0 0 73.88 65.87">
  <defs>
    <style>
      .cls-1 {
        fill: none;
        stroke: #fff;
        stroke-miterlimit: 10;
        stroke-width: 1.5px;
      }
    </style>
  </defs>
  <g id="Camada_1-2" data-name="Camada 1">
    <path class="cls-1" d="M69.08,22.59c-2.8.9-5.37,1.74-7.94,2.54-2.27.72-4.53,1.47-6.84,2.08-1.07.28-1.47,1.01-1.79,1.86-1.28,3.4-2.51,6.81-3.79,10.2-1.78,4.74-3.59,9.48-5.39,14.21-.8,2.09-1.61,4.18-2.31,6.33,1.16-1.53,2.32-3.06,3.47-4.6,1.2-1.6,2.39-3.2,3.59-4.8,1.51-2.01,3.03-4.02,4.54-6.03,1.63-2.16,3.26-4.33,4.9-6.48.81-1.06,1.64-2.09,2.49-3.12.47-.56,1.09-.51,1.62-.16.54.35.55,1.32.16,1.85-2.2,2.9-4.38,5.81-6.57,8.72-1.82,2.41-3.65,4.81-5.47,7.23-2.37,3.15-4.71,6.33-7.12,9.46-1.02,1.32-1.82,2.91-3.58,3.44-.61.18-1.28.16-1.92.25-2.45.33-3.98-.99-5.29-2.84-1.36-1.93-2.81-3.81-4.23-5.7-.52-.7-1.08-1.37-1.59-2.08-.49-.69-.4-1.16.24-1.71.5-.42,1.18-.4,1.66.19,1.16,1.43,2.28,2.89,3.4,4.35.51.66.99,1.34,1.58,1.99-.24-.7-.47-1.41-.73-2.11-.98-2.58-1.98-5.16-2.96-7.75-1.69-4.43-3.37-8.86-5.05-13.3-.95-2.51-1.87-5.02-2.79-7.53-.36-.99-.89-1.65-2.03-1.94-1.97-.49-3.87-1.24-5.81-1.84-2.35-.73-4.71-1.41-7.06-2.12-.51-.15-1-.36-1.68-.61,2.15,2.86,4.2,5.57,6.23,8.28,2.13,2.84,4.24,5.69,6.37,8.52,1.43,1.9,2.9,3.78,4.34,5.68,1.08,1.42,2.15,2.85,3.21,4.29.46.63.4,1.4-.12,1.82-.6.5-1.12.51-1.7-.19-1.12-1.33-2.17-2.73-3.22-4.12-1.5-1.97-2.98-3.95-4.46-5.93-1.67-2.24-3.33-4.5-5.02-6.73-1.24-1.65-2.54-3.26-3.78-4.91-1.44-1.9-2.84-3.83-4.26-5.74-.5-.67-1-1.34-1.53-1.99-.82-1-.84-2-.04-3.03,1.81-2.31,3.6-4.62,5.41-6.93,2.04-2.61,4.05-5.25,6.13-7.83.29-.36.88-.58,1.36-.66,1.31-.23,2.63-.34,3.95-.52,1.39-.19,2.78-.42,4.17-.61,1.21-.16,2.42-.33,3.64-.42.61-.05,1.15.22,1.25.89.16,1.03-.12,1.47-1.01,1.62-1.07.18-2.15.28-3.23.42-.16.02-.31.04-.47.07-.02.08-.04.16-.05.24.47.14.94.31,1.42.42,1.74.37,3.49.73,5.24,1.08,1.85.37,3.71.73,5.57,1.1.79.16,1.59.45,2.38.42,1.18-.04,2.36-.29,3.53-.5,1.65-.3,3.28-.64,4.92-.99,1.53-.33,3.06-.7,4.59-1.03.56-.12,1.13-.17,1.68-.28.22-.04.41-.18.57-.42-.68-.11-1.36-.23-2.05-.32-2.37-.3-4.74-.59-7.11-.86-2.1-.24-4.21-.58-6.31-.61-1.69-.02-3.39.34-5.07.59-.82.12-1.7-.28-1.85-.95-.19-.84.3-1.37,1.4-1.58,2.41-.45,4.85-.76,7.3-.62,1.56.09,3.11.4,4.67.6,1.21.15,2.43.27,3.64.43,2.01.28,4.01.6,6.02.88,1.24.17,2.48.28,3.72.43,1.32.16,2.64.29,3.95.51,1.05.17,1.65,1.06,2.26,1.8,1.3,1.56,2.52,3.19,3.75,4.81,1.06,1.4,2.1,2.82,3.16,4.22,1.06,1.38,2.07,2.8,3.23,4.09,1.68,1.86,1.15,2.66-.11,4.3-1.45,1.89-2.86,3.81-4.31,5.7-1.12,1.47-2.24,2.94-3.4,4.37-.45.56-1.37.57-1.83.14-.43-.41-.4-1.24.01-1.79,1.42-1.88,2.83-3.78,4.24-5.67.58-.78,1.18-1.56,1.89-2.5ZM23.59,27.89c4.46,11.76,8.88,23.4,13.35,35.19,4.49-11.84,8.9-23.47,13.35-35.19h-26.7ZM36.94,11.16c-4.13,4.73-8.19,9.37-12.34,14.12h24.68c-4.16-4.76-8.21-9.39-12.34-14.12ZM15.48,6.2c2.27,6.08,4.47,11.98,6.71,17.98,4.18-4.77,8.23-9.39,12.35-14.09-6.37-1.3-12.58-2.57-19.06-3.89ZM51.69,24.18c2.25-6.04,4.45-11.93,6.7-17.98-6.48,1.32-12.7,2.6-19.05,3.89,4.13,4.71,8.18,9.33,12.35,14.09ZM13.05,7.05c-3.27,4.19-6.43,8.24-9.7,12.42,5.47,1.72,10.72,3.37,15.97,5.02.05-.09.1-.17.15-.26-2.12-5.67-4.24-11.34-6.43-17.19ZM70.52,19.48c-3.29-4.21-6.45-8.26-9.7-12.42-2.19,5.86-4.31,11.53-6.43,17.19.06.08.11.16.17.24,5.23-1.65,10.46-3.29,15.96-5.02Z"/>
  </g>
</svg>