<?xml version="1.0" encoding="UTF-8"?>
<svg id="Camada_2" data-name="Camada 2" xmlns="http://www.w3.org/2000/svg" viewBox="0 0 109.42 52.67">
  <defs>
    <style>
      .cls-1 {
        fill: none;
        stroke: #fff;
        stroke-miterlimit: 10;
        stroke-width: 1.5px;
      }
    </style>
  </defs>
  <g id="Camada_1-2" data-name="Camada 1">
    <g>
      <path class="cls-1" d="M106.87,21.32c-3.06-2.37-5.97-4.93-9.11-7.18-5.05-3.62-10.53-6.5-16.3-8.79-4-1.58-8.07-2.95-12.33-3.68-3.07-.52-6.15-1.24-9.25-1.37-4.16-.17-8.34.01-12.5.3-2.81.19-5.61.7-8.37,1.3-5.15,1.11-10.09,2.88-14.88,5.09-8.03,3.71-15.25,8.6-21.83,14.49-2.83,2.54-2.69,7.45.05,9.82,4.98,4.3,10.23,8.19,15.97,11.42,9.3,5.24,19.22,8.6,29.84,9.53,4.68.41,9.45.04,14.17-.18,4.46-.21,8.78-1.33,13.04-2.62,5.87-1.78,11.46-4.23,16.75-7.32,1.17-.68,2.33-1.4,3.41-2.22.8-.6.82-1.45.22-2.25-.59-.79-1.4-.9-2.28-.57-.31.12-.58.32-.87.49-6.66,4.14-13.75,7.28-21.48,9.23,13.02-10.88,13.04-29.88.1-40.83.46.04.73.02.96.09,7.21,2.09,14.05,5.04,20.42,9.02,4.23,2.64,8.22,5.61,11.91,8.95,1.59,1.43,1.6,3.05.03,4.48-1.58,1.44-3.23,2.81-4.9,4.13-1.1.87-1.47,2.04-.74,2.94.69.86,1.99.8,3.05-.09,1.55-1.31,3.05-2.69,4.68-3.88,3.23-2.37,3.45-7.82.22-10.31ZM74.85,16.12c2.03,3.94,2.75,8.17,2.31,12.54-.56,5.51-2.89,10.24-6.94,14.06-3.63,3.42-7.9,5.43-12.88,5.99-7.57.85-13.93-1.57-19.15-7.03-3.17-3.31-5.23-7.23-5.68-11.83-.23-2.32-.09-4.69-.02-7.03.03-1.12-.55-2.12-1.6-2.3-1.03-.18-1.96.58-2.13,1.76-1.08,7.62.73,14.47,5.58,20.47,1.15,1.43,2.48,2.71,3.67,3.99-4.91-1.2-9.73-3.08-14.4-5.38-5.02-2.47-9.7-5.46-14.12-8.86-1.64-1.26-3.19-2.63-4.71-4.03-1.5-1.39-1.46-3.03.08-4.41,4.12-3.7,8.57-6.97,13.33-9.81,5.97-3.56,12.33-6.24,19-8.16.24-.07.49-.07.45-.06-1.6,1.97-3.34,4.05-5.01,6.18-.52.66-.9,1.43-1.28,2.19-.53,1.05-.21,2.1.71,2.57.93.47,1.93.14,2.5-.92,2.22-4.13,5.31-7.41,9.48-9.62,2.69-1.42,5.55-2.22,8.6-2.53,3.46-.35,6.8.06,9.97,1.27,5.44,2.07,9.57,5.73,12.26,10.94Z"/>
      <path class="cls-1" d="M54.65,13.54c-7.02.04-12.84,5.82-12.66,12.77-.27,6.66,5.49,12.77,12.63,12.8,7.31.03,12.69-6.14,12.82-12.43.15-7.38-5.84-13.18-12.78-13.14ZM54.66,35.46c-4.61-.02-9.09-3.95-9.05-9.07.04-5.09,3.83-9.14,9.06-9.16,5.16-.02,9.16,3.98,9.07,9.12.19,5.21-4.45,9.13-9.08,9.11Z"/>
    </g>
  </g>
</svg>