<?xml version="1.0" encoding="UTF-8"?>
<svg id="Camada_2" data-name="Camada 2" xmlns="http://www.w3.org/2000/svg" viewBox="0 0 88.55 88.55">
  <defs>
    <style>
      .cls-1 {
        fill: #fff;
      }

      .cls-2 {
        fill: none;
        stroke: #fff;
        stroke-miterlimit: 10;
        stroke-width: 3px;
      }
    </style>
  </defs>
  <g id="Camada_1-2" data-name="Camada 1">
    <g>
      <path class="cls-2" d="M44.9,15.42c-15.96,0-28.9,12.56-28.9,28.06,0,6.79,2.49,13.02,6.62,17.87l-3.16,9.3,10.04-3.46c4.46,2.74,9.73,4.35,15.4,4.35,15.96,0,28.9-12.56,28.9-28.06s-12.94-28.06-28.9-28.06Z"/>
      <path class="cls-1" d="M35.9,27.57c.55,0,1.01.34,1.01.34,0,0,2.87,4.81,4.08,7.23.51,1.02-.51,1.87-.51,1.87l-2.13,2.21c-1.36,1.02-.77,2.3-.77,2.3,1.45,3.66,6.55,7.99,8.08,8.67.47.21.85.28,1.14.28.66,0,.9-.37.9-.37,0,0,2.04-1.61,2.89-2.29.49-.39.97-.47,1.3-.47.24,0,.4.05.4.05,0,0,7.06,3.83,7.31,4.59.26.77-.85,2.55-2.38,3.83s-3.83,1.44-3.83,1.44c-.26.03-.52.04-.78.04-6.72,0-14.36-8.12-14.36-8.12,0,0-7.31-8.07-7.74-13.18-.42-5.1,4.51-8.08,4.51-8.08.28-.25.59-.34.86-.34M35.9,24.57c-.97,0-1.88.32-2.64.92-1.17.78-6.23,4.53-5.72,10.75.49,5.95,7.69,14.04,8.5,14.94l.02.02.02.02c.87.93,8.76,9.06,16.55,9.06.35,0,.7-.02,1.04-.05.5-.04,3.35-.35,5.48-2.13.45-.38,4.41-3.8,3.3-7.09-.34-1.04-.62-1.88-8.73-6.27l-.27-.15-.3-.09c-.22-.06-.66-.17-1.26-.17-1.15,0-2.25.39-3.18,1.13-.53.43-1.54,1.23-2.21,1.76-1.34-.9-4.51-3.74-5.81-6.12l1.85-1.93c1.29-1.18,2.15-3.31,1.11-5.38-1.24-2.49-4.07-7.22-4.19-7.42l-.3-.51-.47-.35c-.29-.22-1.36-.94-2.8-.94h0Z"/>
      <path class="cls-2" d="M87.05,44.27c0,23.62-19.15,42.78-42.78,42.78S1.5,67.9,1.5,44.27,20.65,1.5,44.28,1.5s42.78,19.15,42.78,42.77Z"/>
    </g>
  </g>
</svg>