<?xml version="1.0" encoding="UTF-8"?>
<svg id="Camada_2" data-name="Camada 2" xmlns="http://www.w3.org/2000/svg" viewBox="0 0 146.95 25.09">
  <defs>
    <style>
      .cls-1 {
        fill: #f04b24;
      }

      .cls-2 {
        fill: #fff;
      }
    </style>
  </defs>
  <g id="Camada_1-2" data-name="Camada 1">
    <polygon class="cls-1" points="18.67 0 18.67 18.67 12.42 12.42 12.42 0 0 0 0 24.82 6.21 24.82 6.21 6.21 12.46 12.46 12.46 24.82 24.82 24.82 24.82 0 18.67 0"/>
    <path class="cls-2" d="M100.8,12.45c-2.48.76-4.03,2.52-4.49,5.1-.2,1.12-.11,2.2.26,3.2.84,2.27,2.5,3.69,4.93,4.21.42.09.85.14,1.29.14.49,0,1-.06,1.51-.17,1.27-.28,2.35-.87,3.24-1.75,1.26-1.26,1.88-2.77,1.87-4.61.01-1.73-.58-3.2-1.75-4.38-1.91-1.92-4.28-2.52-6.85-1.73M106.54,18.61c0,2.17-1.61,3.8-3.73,3.8h0c-2.13,0-3.74-1.64-3.74-3.8,0-1.06.39-2.04,1.09-2.74.69-.69,1.63-1.07,2.66-1.07h0c1.01,0,1.94.38,2.63,1.08.71.71,1.09,1.68,1.09,2.74"/>
    <path class="cls-2" d="M69.33,12.4h-3.1s-3.31,8.16-3.4,8.38v.02c-1.14-2.72-3.41-8.4-3.41-8.4h-3.11l5.3,12.4h2.39l5.33-12.4Z"/>
    <path class="cls-2" d="M73.5,12.45c-2.48.76-4.03,2.52-4.49,5.1-.2,1.12-.11,2.2.26,3.2.84,2.27,2.5,3.69,4.93,4.21.42.09.85.14,1.29.14.49,0,1-.06,1.51-.17,1.26-.28,2.35-.87,3.24-1.75,1.26-1.26,1.88-2.77,1.87-4.61.01-1.73-.58-3.2-1.75-4.38-1.91-1.92-4.28-2.52-6.85-1.73M79.24,18.61c0,2.17-1.61,3.8-3.73,3.8h0c-2.13,0-3.74-1.64-3.74-3.8,0-1.06.39-2.04,1.09-2.74.69-.69,1.63-1.07,2.65-1.07h0c1.01,0,1.94.38,2.63,1.08.71.71,1.09,1.68,1.09,2.74"/>
    <path class="cls-2" d="M48.24,12.45c-2.48.76-4.03,2.52-4.49,5.1-.2,1.12-.11,2.2.26,3.2.84,2.27,2.5,3.69,4.93,4.21.42.09.85.14,1.29.14.49,0,1-.06,1.51-.17,1.26-.28,2.35-.87,3.24-1.75,1.27-1.26,1.88-2.77,1.87-4.61.01-1.73-.58-3.2-1.75-4.38-1.91-1.92-4.28-2.52-6.85-1.73M53.98,18.61c0,2.17-1.61,3.8-3.73,3.8h0c-2.13,0-3.74-1.64-3.74-3.8,0-1.06.39-2.04,1.09-2.74.69-.69,1.63-1.07,2.65-1.07h0c1.01,0,1.94.38,2.63,1.08.71.71,1.09,1.68,1.09,2.74"/>
    <path class="cls-2" d="M144.99,20.94c1.04,0,1.96.79,1.96,1.96s-.93,1.96-1.96,1.96-1.96-.79-1.96-1.96.93-1.96,1.96-1.96M144.99,21.35c-.85,0-1.52.66-1.52,1.55s.67,1.55,1.52,1.55,1.52-.66,1.52-1.55-.68-1.55-1.52-1.55M144.93,23.06h-.35v.97h-.38v-2.24h.87c.55,0,.84.19.84.64,0,.41-.26.58-.61.61l.64.98h-.44l-.59-.97ZM144.99,22.74c.28,0,.53-.03.53-.34,0-.26-.27-.3-.5-.3h-.43v.64h.4Z"/>
    <path class="cls-2" d="M125.53,12.24c0-.93,0-2.87,0-2.87h-2.84v2.87s-2.93,0-2.93,0v2.67h2.94v1.53c0,1.3,0,2.6,0,3.9,0,.44.02.79.05,1.1.08.76.37,1.44.85,2,.73.86,1.71,1.3,2.99,1.35.22,0,.43.01.65.01.17,0,.33,0,.49,0,.19,0,.76-.01.76-.01v-2.66s-.4,0-.53,0c-.27,0-.54,0-.81,0-.55-.02-.97-.2-1.26-.57-.25-.31-.37-.69-.37-1.21,0-1.22,0-2.45,0-3.67v-1.78s0,0,0,0h2.96v-2.67h-2.96Z"/>
    <path class="cls-2" d="M116.93,12.24c-1.21.04-2.27.45-3.14,1.23-.09.08-.18.16-.27.25v-1.32h-2.74v12.4s2.81,0,2.81,0v-6.63c0-.33.02-.77.16-1.18.45-1.28,1.57-2.08,2.93-2.08.42,0,1.43,0,1.43,0h.15v-2.67h-.15s-.85,0-1.19,0"/>
    <path class="cls-2" d="M141.97,16.89c-.28-1.46-1.07-2.65-2.29-3.53-1.33-.97-2.86-1.36-4.54-1.18-1.2.13-2.28.56-3.19,1.28-1.43,1.12-2.24,2.63-2.4,4.49-.1,1.05.02,2.05.35,2.96.49,1.37,1.36,2.45,2.57,3.21.84.53,1.77.84,2.76.93.26.02.51.04.75.04.95,0,1.8-.18,2.61-.54,1.33-.6,2.36-1.63,3.04-3.04.04-.08.08-.17.12-.26l.14-.37h-2.89s-.24.35-.3.44c-.11.15-.22.29-.34.42-.49.49-1.11.78-1.92.87-.83.1-1.54,0-2.16-.32-.83-.41-1.38-1.09-1.68-2.06-.05-.16-.09-.33-.13-.51,0-.03-.01-.05-.02-.08h9.67s.07-1.54-.16-2.74M139.24,17.28h-6.72l.03-.09c.06-.2.12-.4.19-.58.42-1.02,1.14-1.66,2.12-1.9,1.29-.32,2.36-.12,3.26.61.61.49.98,1.13,1.13,1.96"/>
    <path class="cls-2" d="M42.34,17.26c0-.64-.14-1.29-.4-1.95-.91-2.28-3.09-3.5-5.54-3.11-1.01.16-1.92.63-2.7,1.41v-1.2h-2.75v12.41h2.82v-7.15c0-1.59,1.29-2.88,2.88-2.88s2.88,1.29,2.88,2.88v7.15h2.82v-.15s0-4.98,0-7.4"/>
    <path class="cls-2" d="M94.93,17.26c0-.64-.14-1.29-.4-1.95-.91-2.28-3.09-3.5-5.54-3.11-1.01.16-1.92.63-2.7,1.41v-1.2h-2.75v12.41h2.82v-7.15c0-1.59,1.29-2.88,2.88-2.88s2.88,1.29,2.88,2.88v7.15h2.83v-.15s0-4.98,0-7.4"/>
  </g>
</svg>